<?xml version="1.0" encoding="utf-8"?>
<!-- Generator: Adobe Illustrator 23.0.4, SVG Export Plug-In . SVG Version: 6.00 Build 0)  -->
<svg version="1.1" id="kangaroo" xmlns="http://www.w3.org/2000/svg" xmlns:xlink="http://www.w3.org/1999/xlink" x="0px" y="0px"
	 viewBox="0 0 300 300" style="enable-background:new 0 0 300 300;" xml:space="preserve">
<style type="text/css">
	.st0{fill:#FCEE21;stroke:#FFFFFF;stroke-width:3;stroke-linecap:round;stroke-linejoin:round;}
	.st1{fill:#F9F3C5;stroke:#FFFFFF;stroke-width:3;stroke-linecap:round;stroke-linejoin:round;}
	.st2{fill:#FCF297;stroke:#FFFFFF;stroke-width:3;stroke-linecap:round;stroke-linejoin:round;}

	#kangaroo { cursor: pointer; }

	#kangaroo:hover #tail_bottom { fill: #FCF297; }
	#kangaroo:hover #tail { fill: #FCF297; }
	#kangaroo:hover #face { fill: #FCF297; }
	#kangaroo:hover #ear { fill: #FCF297; }
	#kangaroo:hover #neck { fill: #FCF297; }
	#kangaroo:hover #chest { fill: #FCF297; }
	#kangaroo:hover #tummy { fill: #FCF297; }
	#kangaroo:hover #leg { fill: #FCF297; }
	#kangaroo:hover #feet { fill: #FCF297; }
	#kangaroo:hover #arm { fill: #FCF297; }
	#kangaroo:hover #hand { fill: #FCF297; }


	#kangaroo:hover { background-color: #FCF297; }

</style>
<polygon id="tail_bottom" class="st0" points="134.5,120.5 122.5,125.5 88.5,268 101.5,285.5 162.1,150 "/>
<polygon id="tail" class="st1" points="101.5,285.5 2.5,285.5 88.5,268 "/>
<polygon id="face" class="st1" points="247.5,26.5 296.5,49.5 296.5,64.5 247.5,64.5 "/>
<polygon id="ear" class="st1" points="247.5,7.5 247.5,33.5 214.5,60.5 214.5,30.5 "/>
<polygon id="neck" class="st2" points="247.5,33.5 247.5,141.5 214.5,60.5 "/>
<polygon id="chest" class="st0" points="214.5,60.5 192.5,92.5 236.8,161.5 247.5,141.5 "/>
<polygon id="tummy" class="st1" points="236.8,161.5 192.5,92.5 134.5,120.5 177.5,230.5 "/>
<polygon id="leg" class="st2" points="134.5,120.5 177.5,166.5 177.5,290.2 115.5,174.5 "/>
<polygon id="feet" class="st1" points="177.5,290.2 253.5,290.2 177.5,263.2 "/>
<polygon id="arm" class="st2" points="211,190.5 247.5,190.5 236.8,161.5 "/>
<polygon id="hand" class="st0" points="247.5,190.5 278.5,178.5 241.8,175 "/>
</svg>
