<?xml version="1.0" encoding="utf-8"?>
<!-- Generator: Adobe Illustrator 23.0.4, SVG Export Plug-In . SVG Version: 6.00 Build 0)  -->
<svg version="1.1" id="penguin" xmlns="http://www.w3.org/2000/svg" xmlns:xlink="http://www.w3.org/1999/xlink" x="0px" y="0px"
	 viewBox="0 0 300 300" style="enable-background:new 0 0 300 300;" xml:space="preserve">
<style type="text/css">
	.st0{fill:#C9CCF4;stroke:#FFFFFF;stroke-width:3;stroke-linecap:round;stroke-linejoin:round;}
	.st1{fill:#2E3192;stroke:#FFFFFF;stroke-width:3;stroke-linecap:round;stroke-linejoin:round;}
	.st2{fill:#6D77BC;stroke:#FFFFFF;stroke-width:3;stroke-linecap:round;stroke-linejoin:round;}
	.st3{fill:none;stroke:#FFFFFF;stroke-width:3;stroke-linecap:round;stroke-linejoin:round;}

	#penguin { cursor: pointer; }

	#penguin:hover #tummy_1_ { fill: #6D77BC; }
	#penguin:hover #leg { fill: #6D77BC; }
	#penguin:hover #beak { fill: #6D77BC; }
	#penguin:hover #arm { fill: #6D77BC; }
	#penguin:hover #arm_line { fill: #6D77BC; }
	#penguin:hover #head { fill: #6D77BC; }
	#penguin:hover #hand { fill: #6D77BC; }


	#penguin:hover { background-color: #6D77BC; }

</style>
<polygon id="tummy_1_" class="st0" points="223.3,279.1 205.3,267.1 223.3,108.6 137,79.1 76.8,156.4 76.8,235.5 113.9,281.4
	203.7,281.4 "/>
<polygon id="leg" class="st1" points="113.9,281.4 76.7,281.4 96.9,260.4 "/>
<polygon id="beak" class="st1" points="125.6,39.2 83.8,50.9 118.3,64.1 "/>
<polygon id="arm" class="st2" points="223.3,108.6 203.6,281.4 156.5,260.4 181.4,222.5 177.5,156.4 136.9,138.7 180.1,93.8 "/>
<line id="arm_line" class="st3" x1="136.9" y1="138.7" x2="156.5" y2="260.4"/>
<polygon id="head" class="st0" points="116,71.9 131.7,18.6 168.7,27.7 223.3,108.6 "/>
<polygon id="hand" class="st1" points="177.5,156.4 136.9,187.6 181.4,222.5 "/>
</svg>
